<svg xmlns="http://www.w3.org/2000/svg" width="45" height="44" viewBox="0 0 45 44" fill="none">
<path d="M3.07812 0L5.811 38.5087L22.5171 44L39.2232 38.5087L41.9561 0H3.07812Z" fill="#FF7816"/>
<path d="M41.9566 0L39.2237 38.5087L22.5176 44V0H41.9566Z" fill="#FF4B00"/>
<path d="M34.6606 11.6875H15.5566L16.0206 18.1328H34.1967L33.0879 33.7389L22.5176 37.271L11.9473 33.7389L11.5864 28.5312H16.7426L16.8457 29.9492L22.5176 31.8311L28.1895 29.9492L28.6534 23.2891H11.1997L10.0137 6.53125H35.0215L34.6606 11.6875Z" fill="#ECECF1"/>
<path d="M34.1967 18.1328L33.0879 33.7389L22.5176 37.271V31.8311L28.1895 29.9492L28.6534 23.2891H22.5176V18.1328H34.1967Z" fill="#E2E2E7"/>
<path d="M35.0215 6.53125L34.6606 11.6875H22.5176V6.53125H35.0215Z" fill="#E2E2E7"/>
</svg>