<svg xmlns="http://www.w3.org/2000/svg" width="48" height="47" viewBox="0 0 48 47" fill="none">
<g clip-path="url(#clip0_1229_7021)">
<path d="M0.5 0H47.5V47H0.5V0Z" fill="#FFDF00"/>
<path d="M32.0719 36.7189C33.0186 38.2647 34.2504 39.4008 36.4288 39.4008C38.2588 39.4008 39.4278 38.4862 39.4278 37.2224C39.4278 35.7079 38.2267 35.1716 36.2124 34.2905L35.1083 33.8167C31.9212 32.459 29.804 30.758 29.804 27.1621C29.804 23.8497 32.3279 21.3281 36.2721 21.3281C39.0802 21.3281 41.099 22.3054 42.5537 24.8643L39.1145 27.0726C38.3573 25.7148 37.5404 25.1799 36.2721 25.1799C34.9785 25.1799 34.1586 26.0006 34.1586 27.0726C34.1586 28.3976 34.9792 28.934 36.8741 29.7546L37.9782 30.2276C41.7308 31.8368 43.8495 33.4773 43.8495 37.1657C43.8495 41.142 40.7258 43.3205 36.5309 43.3205C32.4292 43.3205 29.7793 41.3658 28.4827 38.804L32.0719 36.7189ZM16.4701 37.1016C17.1639 38.3326 17.7951 39.3733 19.3125 39.3733C20.7636 39.3733 21.679 38.8055 21.679 36.5981V21.5804H26.0955V36.6577C26.0955 41.2308 23.4143 43.3123 19.5005 43.3123C15.9643 43.3123 13.9165 41.4822 12.875 39.2781L16.4701 37.1016Z" fill="black"/>
</g>
<defs>
<clipPath id="clip0_1229_7021">
<rect width="47" height="47" fill="white" transform="translate(0.5)"/>
</clipPath>
</defs>
</svg>