<svg xmlns="http://www.w3.org/2000/svg" width="45" height="44" viewBox="0 0 45 44" fill="none">
<g clip-path="url(#clip0_1229_7031)">
<path d="M41.0221 10.1509C39.3828 7.58356 35.8577 6.51706 31.108 7.12919C30.9402 7.14886 30.7624 7.17856 30.5946 7.19823C30.5256 7.04047 30.4565 6.88233 30.3774 6.72457C28.3335 2.38951 25.539 0 22.4977 0C19.4563 0 16.6521 2.38951 14.6179 6.72457C14.5488 6.88233 14.4698 7.04047 14.4007 7.19823C14.2229 7.16892 14.0551 7.14886 13.8873 7.12919C9.12797 6.50703 5.61256 7.58356 3.97327 10.1509C2.33436 12.7182 2.83772 16.3617 5.38537 20.4102C5.72133 20.9436 6.0866 21.4767 6.48158 22.0001C6.0866 22.5331 5.72133 23.0566 5.38537 23.5896C2.83772 27.6381 2.33436 31.2916 3.97327 33.8493C5.3063 35.9426 7.89368 37.0388 11.379 37.0388C12.2145 37.0341 13.0488 36.9782 13.8773 36.8706C14.0451 36.8509 14.2229 36.8212 14.3907 36.8015C14.4601 36.9597 14.5292 37.1174 14.6082 37.2756C16.6521 41.6103 19.4466 44.0002 22.4876 44.0002C25.529 44.0002 28.3335 41.6103 30.3674 37.2756C30.4365 37.1174 30.5155 36.9597 30.5846 36.8015C30.7624 36.8312 30.9302 36.8509 31.0984 36.8706C31.9261 36.9828 32.7608 37.0388 33.5962 37.0388C37.082 37.0388 39.669 35.9426 41.002 33.8493C42.6413 31.2819 42.1375 27.6381 39.5903 23.5896C39.2543 23.0566 38.889 22.5235 38.4941 22.0001C38.889 21.4666 39.2543 20.9436 39.5903 20.4102C42.1672 16.352 42.671 12.7082 41.0221 10.1509ZM16.4053 7.56389C18.0739 4.00913 20.2956 1.97487 22.4977 1.97487C24.6997 1.97487 26.9214 4.00913 28.59 7.56389C28.5912 7.57122 28.5947 7.57816 28.6001 7.58356C26.5025 8.08808 24.4567 8.78545 22.4876 9.66681C20.5209 8.78121 18.4743 8.08345 16.3756 7.58356C16.3952 7.58356 16.3952 7.57353 16.4053 7.56389ZM31.3946 22.0001C31.395 23.58 31.3093 25.1591 31.1377 26.7297C29.9069 27.7229 28.6213 28.646 27.2867 29.4945C25.7465 30.4835 24.1435 31.371 22.4876 32.151C20.8352 31.3649 19.2322 30.4777 17.6889 29.4945C16.3559 28.6436 15.0703 27.7206 13.8379 26.7297C13.4954 23.5858 13.4954 20.414 13.8379 17.27C16.4994 15.1312 19.4027 13.3118 22.4876 11.8492C24.1404 12.6349 25.7431 13.522 27.2867 14.5052C28.6197 15.3561 29.9053 16.2791 31.1377 17.27C31.3093 18.8411 31.395 20.4198 31.3946 22.0001ZM33.2803 19.1265C34.2473 20.0271 35.1576 20.9868 36.0058 22.0001C35.1576 23.013 34.2473 23.9726 33.2803 24.8733C33.3397 23.9256 33.3694 22.9678 33.3694 22.0001C33.3694 21.0323 33.3397 20.0746 33.2803 19.1265ZM30.7327 29.5343C30.421 31.2438 29.9686 32.9247 29.38 34.5601C27.8464 34.2138 26.3413 33.7517 24.8775 33.1777C26.0424 32.5656 27.2076 31.8941 28.3629 31.1635C29.1729 30.6401 29.9628 30.097 30.7327 29.5343ZM20.1178 33.1777C18.6567 33.759 17.1509 34.2215 15.6153 34.5601C15.0267 32.9247 14.5743 31.2438 14.2626 29.5343C15.0229 30.097 15.8128 30.6401 16.6325 31.1535C17.7877 31.8941 18.9529 32.5656 20.1178 33.1777ZM11.715 24.8733C10.748 23.9726 9.83808 23.013 8.9895 22.0001C9.83808 20.9868 10.748 20.0271 11.715 19.1265C11.6556 20.0746 11.6259 21.0323 11.6259 22.0001C11.6259 22.9678 11.6556 23.9256 11.715 24.8733ZM14.2626 14.4659C14.5743 12.756 15.0267 11.0751 15.6153 9.44001C17.1489 9.786 18.6544 10.2481 20.1178 10.8224C18.9529 11.4345 17.7877 12.1061 16.6325 12.8366C15.8225 13.36 15.0325 13.9031 14.2626 14.4659ZM28.3532 12.8366C27.2076 12.1061 26.0424 11.4245 24.8675 10.8224C26.3286 10.2411 27.8344 9.77867 29.3703 9.44001C29.9586 11.0751 30.411 12.756 30.7231 14.4659C29.9628 13.9031 29.1729 13.36 28.3532 12.8366ZM7.05436 19.3537C4.9607 16.0358 4.44731 13.0638 5.63223 11.2074C6.58032 9.72621 8.63426 8.92624 11.4087 8.92624C12.1516 8.92932 12.8937 8.97908 13.6304 9.07435H13.6501C12.8513 11.3971 12.2955 13.7963 11.9915 16.2332C10.4699 17.5026 9.05314 18.8931 7.75521 20.3905C7.50835 20.0549 7.27152 19.7093 7.05436 19.3537ZM13.6208 34.9158C12.8841 35.0114 12.142 35.0608 11.3991 35.0639C8.62423 35.0639 6.57029 34.2739 5.62259 32.7828C4.43767 30.9263 4.95106 27.9544 7.04434 24.6364C7.26149 24.2908 7.49871 23.9352 7.74557 23.5896C9.04312 25.0873 10.4598 26.4775 11.9815 27.7469C12.2858 30.1842 12.8416 32.5834 13.6405 34.9057C13.6405 34.9158 13.6304 34.9158 13.6208 34.9158ZM28.59 36.4363C26.9214 39.991 24.6997 42.0253 22.4977 42.0253C20.2956 42.0253 18.0739 39.991 16.4053 36.4363C16.4041 36.4289 16.4006 36.422 16.3952 36.4166C18.4928 35.9121 20.5386 35.2147 22.5077 34.333C24.4745 35.2189 26.5211 35.9167 28.6197 36.4166C28.6001 36.4166 28.6001 36.4262 28.59 36.4363ZM37.941 24.6465C40.0346 27.964 40.548 30.9363 39.3631 32.7928C38.1782 34.6489 35.2652 35.4292 31.3745 34.9158H31.3549C32.1537 32.593 32.7099 30.1938 33.0138 27.7569C34.5355 26.4875 35.9522 25.097 37.2498 23.5996C37.487 23.9452 37.7238 24.2908 37.941 24.6465ZM33.0038 16.2433C32.6998 13.8059 32.144 11.4068 31.3452 9.08438H31.3649C35.2552 8.58064 38.1681 9.35091 39.3531 11.2074C40.538 13.0638 40.0246 16.0358 37.9313 19.3537C37.7142 19.6993 37.4769 20.0549 37.2301 20.4005C35.9383 18.9005 34.5247 17.51 33.0038 16.2433Z" fill="url(#paint0_linear_1229_7031)"/>
<path d="M22.4983 18.0898C20.3387 18.0898 18.5879 19.8406 18.5879 22.0002C18.5879 24.1599 20.3387 25.9102 22.4983 25.9102C24.6579 25.9102 26.4087 24.1599 26.4087 22.0002C26.4071 19.841 24.6571 18.0914 22.4983 18.0898ZM22.4983 23.9354C21.4295 23.9354 20.5628 23.0691 20.5628 22.0002C20.5628 20.9314 21.4295 20.0647 22.4983 20.0647C23.5671 20.0647 24.4338 20.9314 24.4338 22.0002C24.4319 23.0683 23.5663 23.9338 22.4983 23.9354Z" fill="url(#paint1_linear_1229_7031)"/>
</g>
<defs>
<linearGradient id="paint0_linear_1229_7031" x1="22.5006" y1="-1.69838" x2="22.5006" y2="46.1732" gradientUnits="userSpaceOnUse">
<stop stop-color="#00EFD1"/>
<stop offset="1" stop-color="#00ACEA"/>
</linearGradient>
<linearGradient id="paint1_linear_1229_7031" x1="22.4983" y1="-1.69823" x2="22.4983" y2="46.1734" gradientUnits="userSpaceOnUse">
<stop stop-color="#00EFD1"/>
<stop offset="1" stop-color="#00ACEA"/>
</linearGradient>
<clipPath id="clip0_1229_7031">
<rect width="44" height="44" fill="white" transform="translate(0.5)"/>
</clipPath>
</defs>
</svg>