<svg xmlns="http://www.w3.org/2000/svg" width="47" height="44" viewBox="0 0 47 44" fill="none">
<g clip-path="url(#clip0_1229_7043)">
<path d="M32.3731 30.6071C34.0707 30.4308 35.3585 28.9623 35.2999 27.1999C35.2415 25.4377 33.7779 24.0278 32.0219 24.0278H31.9049C30.09 24.0866 28.6852 25.6139 28.7438 27.4349C28.8024 28.3161 29.1535 29.0797 29.6804 29.6084C27.6901 33.5443 24.6462 36.4226 20.0804 38.8311C16.9779 40.4759 13.7584 41.0633 10.539 40.6522C7.90474 40.2997 5.85594 39.125 4.56794 37.1862C2.69488 34.3079 2.51933 31.1944 4.09986 28.0811C5.21212 25.8488 6.96803 24.204 8.0803 23.3816C7.84616 22.618 7.49487 21.3257 7.31932 20.3859C-1.16858 26.5539 -0.290447 34.8954 2.28519 38.8311C4.21683 41.7684 8.13887 43.5894 12.4706 43.5894C13.6413 43.5894 14.8119 43.4718 15.9828 43.1782C23.4756 41.7096 29.1537 37.245 32.3731 30.6071ZM42.6757 23.323C38.2268 18.0948 31.6707 15.2165 24.178 15.2165H23.2414C22.7146 14.1591 21.6023 13.4541 20.3731 13.4541H20.2559C18.4414 13.5129 17.0366 15.0401 17.095 16.8613C17.1536 18.6235 18.617 20.0334 20.3731 20.0334H20.4901C21.7779 19.9746 22.8901 19.1522 23.3584 18.036H24.4121C28.861 18.036 33.0755 19.3283 36.8806 21.8543C39.8074 23.7929 41.9147 26.3189 43.0854 29.3734C44.0805 31.8407 44.0219 34.2491 42.9682 36.3052C41.3293 39.4185 38.5781 41.1221 34.9488 41.1221C32.6073 41.1221 30.3829 40.4171 29.2121 39.8884C28.5683 40.4759 27.3974 41.4157 26.5779 42.0033C29.0951 43.1781 31.6708 43.8243 34.1292 43.8243C39.7488 43.8243 43.905 40.7108 45.4855 37.5975C47.183 34.1903 47.0658 28.3161 42.6757 23.323ZM12.9389 31.6055C12.9974 33.3679 14.4608 34.7776 16.2169 34.7776H16.3341C18.1487 34.719 19.5535 33.1916 19.4949 31.3706C19.4365 29.6082 17.973 28.1985 16.2169 28.1985H16.0999C15.9828 28.1985 15.807 28.1985 15.6902 28.2571C13.2902 24.2626 12.295 19.9158 12.6463 15.2163C12.8803 11.6917 14.0511 8.637 16.0999 6.11098C17.7974 3.93748 21.0755 2.88012 23.3 2.82152C29.5048 2.70395 32.1388 10.458 32.3146 13.5715C33.0755 13.7476 34.3634 14.1589 35.2415 14.4527C34.5389 4.93642 28.6852 0.00195312 23.0659 0.00195312C17.7974 0.00195312 12.9389 3.82028 11.007 9.45959C8.31443 16.9787 10.0705 24.204 13.3486 29.9021C13.056 30.3132 12.8803 30.9595 12.9389 31.6057V31.6055Z" fill="#764ABC"/>
</g>
<defs>
<clipPath id="clip0_1229_7043">
<rect width="46" height="44" fill="white" transform="translate(0.5)"/>
</clipPath>
</defs>
</svg>