<svg xmlns="http://www.w3.org/2000/svg" width="63" height="44" viewBox="0 0 63 44" fill="none">
<g clip-path="url(#clip0_1229_7027)">
<path d="M54.215 25.2769C52.0125 25.2884 50.1052 25.781 48.5056 26.5145C47.915 25.4259 47.3244 24.4748 47.2261 23.7645C47.1153 22.9395 46.98 22.4352 47.1153 21.4499C47.2506 20.4644 47.8658 19.0664 47.8658 18.9519C47.8534 18.8487 47.7303 18.3446 46.4631 18.3331C45.1958 18.3216 44.1006 18.5623 43.9775 18.8716C43.8545 19.181 43.6084 19.8914 43.4484 20.6248C43.2269 21.7019 40.9136 25.5175 39.597 27.5227C39.1664 26.7435 38.7972 26.056 38.7233 25.5059C38.6127 24.681 38.4772 24.1767 38.6127 23.1914C38.748 22.2059 39.3633 20.8081 39.3633 20.6935C39.3509 20.5904 39.2279 20.0862 37.9606 20.0748C36.6931 20.0633 35.5981 20.3039 35.4751 20.6133C35.352 20.9227 35.2167 21.656 34.946 22.3664C34.6875 23.0769 31.6113 29.4477 30.8115 31.1091C30.4054 31.9571 30.0487 32.6331 29.7902 33.0914C29.5318 33.5498 29.7779 33.1258 29.7533 33.1716C29.5318 33.5612 29.4088 33.7789 29.4088 33.7789V33.7905C29.2365 34.077 29.0519 34.3519 28.9657 34.3519C28.9041 34.3519 28.7811 33.5842 28.9903 32.5301C29.4456 30.3185 30.553 26.8697 30.5408 26.7436C30.5408 26.6863 30.7498 26.0789 29.827 25.7697C28.9288 25.4603 28.609 25.9759 28.535 25.9759C28.4612 25.9759 28.3997 26.1593 28.3997 26.1593C28.3997 26.1593 29.3963 22.275 26.4924 22.275C24.6713 22.275 22.1612 24.1198 20.9184 25.8042C20.1309 26.2052 18.4575 27.053 16.6856 27.9583C16.0088 28.3021 15.3075 28.6688 14.643 29.001L14.5078 28.8633C10.9886 25.3685 4.47947 22.8935 4.75017 18.1956C4.84861 16.4883 5.48845 11.9852 17.2519 6.53102C26.8864 2.06227 34.6015 3.28832 35.9426 6.0154C37.8498 9.91123 31.8205 17.1529 21.8046 18.1956C17.9901 18.5966 15.9843 17.2216 15.48 16.706C14.9509 16.1675 14.877 16.1446 14.6802 16.2477C14.3603 16.4081 14.5571 16.8894 14.6802 17.1758C14.9755 17.8977 16.206 19.181 18.2978 19.8227C20.131 20.3841 24.6101 20.6935 30.0241 18.7456C36.0903 16.5571 40.8276 10.4841 39.4372 5.40811C38.0222 0.240399 28.8183 -1.45543 20.1188 1.42061C14.9384 3.13936 9.32751 5.82061 5.29158 9.33832C0.492748 13.5091 -0.270143 17.1529 0.0497791 18.6654C1.16963 24.0623 9.15525 27.58 12.3545 30.181C12.1945 30.2611 12.0468 30.3413 11.9115 30.4102C10.3119 31.1434 4.22107 34.1112 2.69529 37.2507C0.972631 40.8028 2.96599 43.3581 4.2949 43.7019C8.40466 44.7675 12.6129 42.8539 14.8892 39.7029C17.1532 36.5519 16.8826 32.4612 15.8367 30.5935L15.7997 30.5248L17.0547 29.8373C17.867 29.3904 18.6668 28.9779 19.368 28.6226C18.9744 29.6194 18.6913 30.7997 18.5437 32.5184C18.3715 34.5352 19.2574 37.1476 20.4263 38.1788C20.9431 38.6256 21.5584 38.6372 21.9398 38.6372C23.2933 38.6372 23.9086 37.5943 24.5853 36.3455C25.422 34.8215 26.1603 33.057 26.1603 33.057C26.1603 33.057 25.2375 37.8351 27.7599 37.8351C28.6828 37.8351 29.6056 36.7236 30.024 36.1507V36.1622C30.024 36.1622 30.0486 36.1278 30.0978 36.0476C30.1495 35.9765 30.1987 35.9039 30.2455 35.83V35.8071C30.6146 35.2112 31.439 33.8477 32.6695 31.5904C34.2567 28.68 35.7826 25.0362 35.7826 25.0362C35.7826 25.0362 35.9302 25.93 36.3855 27.3967C36.6561 28.2676 37.2467 29.2185 37.702 30.1467C37.3329 30.6279 37.1114 30.903 37.1114 30.903L37.1237 30.9145C36.8285 31.2811 36.4961 31.6708 36.1517 32.0603C34.8966 33.4582 33.3955 35.051 33.1986 35.5094C32.9648 36.0478 33.014 36.4488 33.4693 36.7698C33.8015 36.999 34.3922 37.0447 35.0197 36.999C36.1517 36.9301 36.9392 36.6667 37.333 36.5061C37.9482 36.2999 38.6496 35.9905 39.3263 35.5322C40.5568 34.6844 41.3074 33.4813 41.2336 31.8771C41.1967 30.9948 40.889 30.124 40.5076 29.299C40.6183 29.15 40.7292 29.0009 40.8398 28.8406C42.784 26.1936 44.2851 23.2833 44.2851 23.2833C44.2851 23.2833 44.4328 24.1771 44.8881 25.6438C45.1217 26.3885 45.5894 27.2022 46.0078 28.0043C44.1867 29.3907 43.0424 30.9949 42.6486 32.0491C41.9226 33.997 42.4886 34.8793 43.5592 35.0855C44.0389 35.1772 44.7281 34.971 45.2448 34.7647C45.8846 34.5699 46.6598 34.2375 47.3736 33.7449C48.6041 32.897 49.7853 31.7168 49.7238 30.1241C49.6869 29.3907 49.4777 28.6689 49.1947 27.9814C50.7451 27.3855 52.7506 27.0418 55.2978 27.3282C60.7734 27.9241 61.8562 31.1095 61.6472 32.4387C61.438 33.7679 60.2936 34.5012 59.9121 34.7303C59.5306 34.948 59.4076 35.0284 59.4445 35.1887C59.4937 35.4294 59.666 35.4178 59.9982 35.3721C60.4535 35.3032 62.8775 34.2836 62.9759 31.8316C63.1236 28.6801 59.9121 25.2426 54.215 25.2769ZM11.9853 38.5341C10.1765 40.3789 7.62947 41.0779 6.54665 40.4821C5.37771 39.8519 5.83286 37.1362 8.06013 35.1769C9.41365 33.9852 11.1732 32.8852 12.3299 32.2092C12.5883 32.0602 12.982 31.8426 13.4496 31.5789C13.5234 31.5332 13.5726 31.5102 13.5726 31.5102C13.6588 31.4644 13.7572 31.4071 13.8556 31.3498C14.6801 34.1456 13.8926 36.5977 11.9853 38.5341ZM25.2129 30.1581C24.5853 31.5904 23.2564 35.2685 22.4566 35.0623C21.7674 34.8904 21.3492 32.106 22.3211 29.356C22.8133 27.9695 23.8592 26.3196 24.4745 25.6778C25.4713 24.6465 26.554 24.3028 26.8248 24.7267C27.1447 25.2769 25.6066 29.2644 25.2129 30.1581ZM36.1271 35.0164C35.8564 35.1426 35.6103 35.2341 35.4996 35.1655C35.4134 35.1197 35.6102 34.9478 35.6102 34.9478C35.6102 34.9478 36.976 33.5843 37.5174 32.9541C37.825 32.5875 38.1942 32.1635 38.5879 31.6822V31.8197C38.5881 33.4696 36.89 34.5696 36.1271 35.0164ZM44.5434 33.2289C44.3465 33.0914 44.3713 32.6675 45.0356 31.3383C45.2941 30.8112 45.8846 29.9289 46.9059 29.0925C47.0289 29.4362 47.1029 29.7684 47.0905 30.0779C47.0783 32.1404 45.5033 32.9081 44.5434 33.2289Z" fill="#CF649A"/>
</g>
<defs>
<clipPath id="clip0_1229_7027">
<rect width="63" height="44" fill="white"/>
</clipPath>
</defs>
</svg>